<svg width="20px" height="18px" viewBox="0 0 20 18" version="1.1" xmlns="http://www.w3.org/2000/svg" xmlns:xlink="http://www.w3.org/1999/xlink">
    <!-- Generator: Sketch 45.1 (43504) - http://www.bohemiancoding.com/sketch -->
    <desc>Created with Sketch.</desc>
    <defs></defs>
    <g id="Page-1" stroke="none" stroke-width="1" fill="none" fill-rule="evenodd">
        <g id="iPhone-7-Plus" transform="translate(-23.000000, -18.000000)" fill-rule="nonzero" fill="#FFFFFF">
            <g id="TitleBar">
                <g id="back" transform="translate(23.000000, 18.000000)">
                    <path d="M8.55009823,17.2298625 C8.42436149,17.2298625 8.17288802,17.1041257 8.04715128,16.978389 L0.251473477,9.1827112 L0,8.93123772 C0,8.67976424 0,8.42829077 0.251473477,8.17681729 L8.17288802,0.25540275 C8.29862475,0.129666012 8.42436149,0.00392927308 8.67583497,0.00392927308 C8.80157171,0.00392927308 9.05304519,0.129666012 9.17878193,0.25540275 C9.30451866,0.381139489 9.4302554,0.506876228 9.4302554,0.758349705 C9.4302554,1.00982318 9.17878193,1.13555992 9.05304519,1.26129666 L2.2632613,8.05108055 L19.3634578,8.05108055 C19.740668,8.05108055 19.9921415,8.30255403 19.9921415,8.67976424 C19.9921415,8.80550098 19.8664047,9.05697446 19.740668,9.1827112 C19.6149312,9.30844794 19.4891945,9.43418468 19.237721,9.43418468 L2.2632613,9.43418468 L9.05304519,16.2239686 C9.17878193,16.3497053 9.30451866,16.475442 9.30451866,16.7269155 C9.30451866,16.8526523 9.17878193,17.1041257 9.05304519,17.2298625 C8.92730845,17.1041257 8.80157171,17.2298625 8.55009823,17.2298625 Z" id="Shape"></path>
                </g>
            </g>
        </g>
    </g>
</svg>