
<svg width="24px" height="22px" viewBox="0 0 24 22" version="1.1" xmlns="http://www.w3.org/2000/svg" xmlns:xlink="http://www.w3.org/1999/xlink">
    <!-- Generator: Sketch 45.1 (43504) - http://www.bohemiancoding.com/sketch -->
    <desc>Created with Sketch.</desc>
    <defs></defs>
    <g id="Symbols" stroke="none" stroke-width="1" fill="none" fill-rule="evenodd">
        <g id="SecondOptions" transform="translate(-80.000000, -14.000000)" fill-rule="nonzero" fill="#878686">
            <g id="download-(1)">
                <g transform="translate(80.000000, 14.000000)">
                    <path d="M18.7542739,9.66541779 C18.5080554,9.41919928 18.1077925,9.41919928 17.861574,9.66541779 L12.6265899,14.9004019 L12.6265899,0.641194016 C12.6265899,0.292700136 12.3437542,0.00986452333 11.9952604,0.00986452333 C11.6467665,0.00986452333 11.3639309,0.292700136 11.3639309,0.641194016 L11.3639309,14.9004019 L6.12894672,9.66541779 C5.88272821,9.41919928 5.48246532,9.41919928 5.23624681,9.66541779 C4.99002831,9.91163629 4.99002831,10.3118992 5.23624681,10.5581177 L11.5495417,16.8714126 C11.6732823,16.9951532 11.8349027,17.0557608 11.996523,17.0557608 C12.1581434,17.0557608 12.3197637,16.9938905 12.4435043,16.87015 L18.7567992,10.556855 C19.0030177,10.3106365 19.0030177,9.91037363 18.7567992,9.66415513 L18.7542739,9.66541779 Z" id="Shape"></path>
                    <path d="M22.0965323,21.4750673 L1.89398848,21.4750673 C0.849769497,21.4750673 -5.68434189e-14,20.6252978 -5.68434189e-14,19.5810788 L-5.68434189e-14,17.0557608 C-5.68434189e-14,16.707267 0.282835613,16.4244313 0.631329493,16.4244313 C0.979823373,16.4244313 1.26265899,16.707267 1.26265899,17.0557608 L1.26265899,19.5810788 C1.26265899,19.9295727 1.5454946,20.2124083 1.89398848,20.2124083 L22.0965323,20.2124083 C22.4450261,20.2124083 22.7278617,19.9295727 22.7278617,19.5810788 L22.7278617,17.0557608 C22.7278617,16.707267 23.0106974,16.4244313 23.3591912,16.4244313 C23.7076851,16.4244313 23.9905207,16.707267 23.9905207,17.0557608 L23.9905207,19.5810788 C23.9905207,20.6252978 23.1407512,21.4750673 22.0965323,21.4750673 Z" id="Shape"></path>
                </g>
            </g>
        </g>
    </g>
</svg>