
<svg width="27px" height="28px" viewBox="0 0 27 28" version="1.1" xmlns="http://www.w3.org/2000/svg" xmlns:xlink="http://www.w3.org/1999/xlink">
    <!-- Generator: Sketch 45.1 (43504) - http://www.bohemiancoding.com/sketch -->
    <desc>Created with Sketch.</desc>
    <defs>
        <linearGradient x1="-19.5778479%" y1="56.3259721%" x2="123.028636%" y2="56.3262224%" id="linearGradient-1">
            <stop stop-color="#FCF39C" offset="0%"></stop>
            <stop stop-color="#F9E56A" offset="53.156029%"></stop>
            <stop stop-color="#F8E363" offset="100%"></stop>
            <stop stop-color="#FEDA04" offset="100%"></stop>
        </linearGradient>
        <path d="M22.409445,23.9999743 L0.0308963511,23.9999743 L0.0308963511,10.9163985 C0.0308963511,4.88999719 4.91625149,0.00464203135 10.9426529,0.00464203135 L11.4972522,0.00464203135 C17.5238845,0.00464203135 22.409445,4.89020248 22.409445,10.9168348 L22.409445,23.9999743 Z" id="path-2"></path>
        <filter x="-15.6%" y="-10.4%" width="131.3%" height="129.2%" filterUnits="objectBoundingBox" id="filter-3">
            <feOffset dx="0" dy="1" in="SourceAlpha" result="shadowOffsetOuter1"></feOffset>
            <feGaussianBlur stdDeviation="1" in="shadowOffsetOuter1" result="shadowBlurOuter1"></feGaussianBlur>
            <feColorMatrix values="0 0 0 0 0   0 0 0 0 0.542352117   0 0 0 0 0.654177296  0 0 0 1 0" type="matrix" in="shadowBlurOuter1"></feColorMatrix>
        </filter>
    </defs>
    <g id="Page-1" stroke="none" stroke-width="1" fill="none" fill-rule="evenodd">
        <g id="iPhone-7-Plus" transform="translate(-18.000000, -13.000000)" fill-rule="nonzero">
            <g id="TitleBar">
                <g id="小黄人" transform="translate(20.000000, 14.000000)">
                    <g id="Shape">
                        <use fill="black" fill-opacity="1" filter="url(#filter-3)" xlink:href="#path-2"></use>
                        <use fill="url(#linearGradient-1)" fill-rule="evenodd" xlink:href="#path-2"></use>
                    </g>
                    <polygon id="Shape" fill="#000000" points="0.0217347461 9.76331646 22.4185809 9.76331646 22.4185809 12.7272189 0.0217347461 12.7272189"></polygon>
                    <polygon id="Shape" fill="#2B2B2D" points="0.0217347461 10.8570918 22.4185809 10.8570918 22.4185809 11.6334179 0.0217347461 11.6334179"></polygon>
                    <path d="M5.00365908,11.2452677 C5.00365908,14.6785522 7.78688612,17.4617792 11.2201707,17.4617792 C14.6534552,17.4617792 17.4366823,14.6785522 17.4366823,11.2452677 C17.4366823,7.81198312 14.6534552,5.02875608 11.2201707,5.02875608 C7.78688612,5.02875608 5.00365908,7.81198312 5.00365908,11.2452677 L5.00365908,11.2452677 Z" id="Shape" fill="#AFB0B4"></path>
                    <path d="M6.69915067,11.193942 C6.69915067,13.629831 8.67382887,15.6045092 11.1097179,15.6045092 C13.5456069,15.6045092 15.5202851,13.629831 15.5202851,11.193942 C15.5202851,8.75805302 13.5456069,6.78337482 11.1097179,6.78337482 C8.67382887,6.78337482 6.69915067,8.75805302 6.69915067,11.193942 Z" id="Shape" fill="#FDFDFF"></path>
                    <path d="M3.64917515,18.0190475 C3.64917515,18.0190475 9.15356898,22.7151136 16.621092,20.4440562 C16.621092,20.4440562 16.5825977,23.4849471 10.3083448,22.6381252 C4.03409186,21.7913032 3.49519819,18.7889066 3.64917515,18.0190475 Z" id="Shape" fill="#050505"></path>
                    <path d="M3.64917515,18.0190475 C3.64917515,18.0190475 9.15356898,22.7151136 16.621092,20.4440562 C16.621092,20.4440562 16.5825977,23.4849471 10.3083448,22.6381252 C4.03409186,21.7913032 3.49519819,18.7889066 3.64917515,18.0190475 Z" id="Shape" fill="#FC326C"></path>
                    <path d="M5.25305043,20.7631991 C5.25305043,20.7631991 7.87053033,20.6862106 8.02450729,21.9949634 C8.02450729,21.9949634 10.3725275,20.3397882 11.8737258,22.6108456 C11.8737258,22.6108456 13.182453,21.6100467 14.4142173,22.4183744 C14.4142173,22.4183744 12.7606844,22.973333 10.0147621,22.5755592 C8.64585562,22.3772369 6.96807142,22.0010969 5.25305043,20.7631991 L5.25305043,20.7631991 Z" id="Shape" fill="#FDFEFF"></path>
                    <path d="M9.28804218,11.220811 C9.28804218,12.2731134 10.1411019,13.1261731 11.1934043,13.1261731 C12.2457068,13.1261731 13.0987665,12.2731134 13.0987665,11.220811 C13.0987665,10.1685085 12.2457068,9.31544883 11.1934043,9.31544883 C10.1411019,9.31544883 9.28804218,10.1685085 9.28804218,11.220811 Z" id="Shape" fill="#514217"></path>
                    <path d="M10.0722981,11.220811 C10.0722981,11.8399808 10.5742345,12.3419172 11.1934043,12.3419172 C11.8125742,12.3419172 12.3145105,11.8399808 12.3145105,11.220811 C12.3145105,10.6016411 11.8125742,10.0997048 11.1934043,10.0997048 C10.5742345,10.0997048 10.0722981,10.6016411 10.0722981,11.220811 Z" id="Shape" fill="#000000"></path>
                    <path d="M10.8865539,10.6163488 C10.8865539,10.9069983 11.1221719,11.1426164 11.4128215,11.1426164 C11.7034711,11.1426164 11.9390891,10.9069983 11.9390891,10.6163488 C11.9390891,10.3256992 11.7034711,10.0900812 11.4128215,10.0900812 C11.1221719,10.0900812 10.8865539,10.3256992 10.8865539,10.6163488 Z" id="Shape" fill="#FFFFFF"></path>
                    <path d="M5.54943039,1.12141124 C5.54943039,1.12141124 7.37351839,-0.220164313 10.224607,0.547205492 C9.03782962,0.372005392 7.10272424,0.403391022 5.55951589,1.949217 C5.55951589,1.949217 7.15212519,0.441141041 9.98992048,0.783406144 C8.78617996,0.802704577 7.0063347,1.14974297 5.75373216,2.79375493 C5.75373216,2.79375493 7.53470661,0.586880226 11.2482458,1.13542312 L11.3043961,0.895090759 L11.2970565,0.893448351 L11.4005547,0.697974596 C11.4005547,0.697974596 8.23119571,-0.970109066 5.54943039,1.12141124 Z M17.4265968,1.94924266 C15.8833884,0.403391022 13.948283,0.372031047 12.7615057,0.547205492 C15.6125943,-0.220164313 17.4366823,1.12141121 17.4366823,1.12141124 C14.754917,-0.970109066 11.585558,0.697974621 11.585558,0.697974596 L11.6890562,0.893448351 C11.6845652,0.894423549 11.6817166,0.895090784 11.6817166,0.895090759 L11.7378669,1.13542312 C15.451406,0.586880226 17.2323805,2.79375491 17.2323805,2.79375493 C15.979778,1.14976865 14.199907,0.802730257 12.9961922,0.783431799 C15.8339874,0.441166696 17.4265967,1.94924266 17.4265968,1.94924266 L17.4265968,1.94924266 Z" id="Shape" fill="#050505"></path>
                </g>
            </g>
        </g>
    </g>
</svg>