
<svg width="30px" height="30px" viewBox="0 0 30 30" version="1.1" xmlns="http://www.w3.org/2000/svg" xmlns:xlink="http://www.w3.org/1999/xlink">
    <!-- Generator: Sketch 45.1 (43504) - http://www.bohemiancoding.com/sketch -->
    <desc>Created with Sketch.</desc>
    <defs></defs>
    <g id="Page-1" stroke="none" stroke-width="1" fill="none" fill-rule="evenodd">
        <g id="iPhone-7-Plus" transform="translate(-76.000000, -685.000000)" fill-rule="nonzero" fill="#BCAAAA">
            <g id="ControlBar" transform="translate(0.000000, 663.000000)">
                <g id="next" transform="translate(76.000000, 22.000000)">
                    <path d="M15,0 C6.75,0 0,6.75 0,15 C0,23.25 6.75,30 15,30 C23.25,30 30,23.25 30,15 C30,6.75 23.25,0 15,0 Z M15,28.3333333 C7.66666667,28.3333333 1.66666667,22.3333333 1.66666667,15 C1.66666667,7.66666667 7.66666667,1.66666667 15,1.66666667 C22.3333333,1.66666667 28.3333333,7.66666667 28.3333333,15 C28.3333333,22.3333333 22.3333333,28.3333333 15,28.3333333 Z" id="Shape"></path>
                    <path d="M18.8333333,9.16834908 C18.4166667,9.16834908 18,9.58501574 18,10.0016824 L18,13.7516824 L9.99999999,9.08501576 C9.58333333,8.83501577 9,9.16834908 9,9.66834909 L9,19.5016824 C9,20.0016824 9.58333333,20.3350157 9.99999999,20.0850157 L18,15.4183491 L18,19.9183491 C18,20.4183491 18.3333333,20.7516824 18.8333333,20.7516824 C19.25,20.7516824 19.6666666,20.3350158 19.6666666,19.9183491 L19.6666666,10.0016824 C19.6666666,9.50168242 19.25,9.16834908 18.8333333,9.16834908 Z" id="Shape"></path>
                </g>
            </g>
        </g>
    </g>
</svg>