<svg width="40px" height="40px" viewBox="0 0 40 40" version="1.1" xmlns="http://www.w3.org/2000/svg" xmlns:xlink="http://www.w3.org/1999/xlink">
    <!-- Generator: Sketch 45.1 (43504) - http://www.bohemiancoding.com/sketch -->
    <desc>Created with Sketch.</desc>
    <defs></defs>
    <g id="Page-1" stroke="none" stroke-width="1" fill="none" fill-rule="evenodd">
        <g id="iPhone-7-Plus" transform="translate(-24.000000, -630.000000)" fill-rule="nonzero" fill="#FFFFFF">
            <g id="pause" transform="translate(24.000000, 630.000000)">
                <path d="M19.9955034,0.00808622754 C8.97207186,0.00808622754 0.00379401198,8.97636407 0.00379401198,20 C0.00379401198,31.0234315 8.97207186,39.9919138 19.9955034,39.9919138 C31.0187305,39.9919138 39.9870084,31.0234315 39.9872128,20 C39.9872128,8.97636407 31.0191393,0.00808622754 19.9955034,0.00808622754 Z M19.994273,38.2899655 C9.90861425,38.2899655 1.70328643,30.0844283 1.70328643,19.9987696 C1.70328643,9.91290148 9.90861425,1.70757365 19.994273,1.70757365 C30.0801411,1.70757365 38.2852596,9.91311084 38.2852596,19.9987696 C38.2850502,30.0844283 30.0799317,38.2899655 19.994273,38.2899655 Z M16.6165078,11.3287026 L16.6165078,28.4264367 C16.6165078,29.0688383 16.0940838,29.5912623 15.4516822,29.5912623 C14.8092806,29.5912623 14.2868567,29.0688383 14.2868567,28.4264367 L14.2868567,11.3287026 C14.2868567,10.686301 14.8092806,10.163877 15.4516822,10.163877 C16.0940838,10.163877 16.6165078,10.686301 16.6165078,11.3287026 Z M25.7041501,11.3287026 L25.7041501,28.4264367 C25.7041501,29.0688383 25.1817261,29.5912623 24.5393246,29.5912623 C23.896923,29.5912623 23.374499,29.0688383 23.374499,28.4264367 L23.374499,11.3287026 C23.374499,10.686301 23.896923,10.163877 24.5393246,10.163877 C25.1817261,10.163877 25.7041501,10.686301 25.7041501,11.3287026 Z" id="Shape"></path>
            </g>
        </g>
    </g>
</svg>
