
<svg width="40px" height="40px" viewBox="0 0 40 40" version="1.1" xmlns="http://www.w3.org/2000/svg" xmlns:xlink="http://www.w3.org/1999/xlink">
    <!-- Generator: Sketch 45.1 (43504) - http://www.bohemiancoding.com/sketch -->
    <desc>Created with Sketch.</desc>
    <defs></defs>
    <g id="Page-1" stroke="none" stroke-width="1" fill="none" fill-rule="evenodd">
        <g id="iPhone-7-Plus" transform="translate(-24.000000, -680.000000)" fill-rule="nonzero" fill="#FFFFFF">
            <g id="ControlBar" transform="translate(0.000000, 663.000000)">
                <g id="play-(1)" transform="translate(24.000000, 17.000000)">
                    <path d="M19.9846758,39.9693517 C8.94763898,39.9693517 0,31.0217127 0,19.9846758 C0,8.94763898 8.94763898,0 19.9846758,0 C31.0217127,0 39.9693517,8.94763898 39.9693517,19.9846758 C39.9693517,31.0217127 31.0217127,39.9693517 19.9846758,39.9693517 Z M19.9846758,1.49885069 C9.79149192,1.49885069 1.49885069,9.79149192 1.49885069,19.9846758 C1.49885069,30.1778597 9.79149192,38.470501 19.9846758,38.470501 C30.1778597,38.470501 38.470501,30.1778597 38.470501,19.9846758 C38.470501,9.79149192 30.1778597,1.49885069 19.9846758,1.49885069 Z M28.8238979,21.2132338 C28.8238979,21.2132338 16.696697,29.2400788 16.696697,29.2400788 C15.7449269,29.8700957 14.48889,29.1711317 14.48889,28.0115209 C14.48889,28.0115209 14.48889,11.9578308 14.48889,11.9578308 C14.48889,10.79822 15.7449269,10.0992559 16.696697,10.7292728 C16.696697,10.7292728 28.8238979,18.7561179 28.8238979,18.7561179 C29.6952298,19.3326758 29.6952298,20.6366759 28.8238979,21.2132338 Z" id="Shape"></path>
                </g>
            </g>
        </g>
    </g>
</svg>