
<svg width="24px" height="26px" viewBox="0 0 24 26" version="1.1" xmlns="http://www.w3.org/2000/svg" xmlns:xlink="http://www.w3.org/1999/xlink">
    <!-- Generator: Sketch 45.1 (43504) - http://www.bohemiancoding.com/sketch -->
    <desc>Created with Sketch.</desc>
    <defs></defs>
    <g id="Symbols" stroke="none" stroke-width="1" fill="none" fill-rule="evenodd">
        <g id="SecondOptions" transform="translate(-285.000000, -12.000000)" fill-rule="nonzero" fill="#878686">
            <g id="share-(1)">
                <g transform="translate(285.000000, 12.000000)">
                    <path d="M19.52,16.48 C18.08,16.48 16.8,17.12 15.84,18.24 L8.8,14.24 C8.96,13.76 9.12,13.28 9.12,12.8 C9.12,12.32 8.96,11.84 8.8,11.36 L15.84,7.52 C16.64,8.64 17.92,9.28 19.52,9.28 C22.08,9.28 24,7.2 24,4.8 C24,2.4 21.92,0 19.52,0 C16.96,0 15.04,2.08 15.04,4.48 C15.04,4.96 15.2,5.44 15.36,5.92 L8.16,10.08 C7.36,8.96 6.08,8.16 4.48,8.16 C2.08,8.16 0,10.24 0,12.8 C0,15.36 2.08,17.28 4.64,17.28 C6.08,17.28 7.36,16.64 8.32,15.52 L15.36,19.36 C15.2,19.84 15.04,20.32 15.04,20.8 C15.04,23.36 17.12,25.28 19.52,25.28 C21.92,25.28 24,23.2 24,20.8 C24,18.4 21.92,16.48 19.52,16.48 Z M19.52,1.44 C21.28,1.44 22.72,2.88 22.72,4.64 C22.72,6.4 21.28,7.84 19.52,7.84 C17.76,7.84 16.32,6.4 16.32,4.64 C16.32,2.88 17.76,1.44 19.52,1.44 Z M4.48,16 C2.72,16 1.28,14.56 1.28,12.8 C1.28,11.04 2.72,9.6 4.48,9.6 C6.24,9.6 7.68,11.04 7.68,12.8 C7.68,14.56 6.24,16 4.48,16 Z M19.52,24.16 C17.76,24.16 16.32,22.72 16.32,20.96 C16.32,19.2 17.76,17.76 19.52,17.76 C21.28,17.76 22.72,19.2 22.72,20.96 C22.56,22.72 21.12,24.16 19.52,24.16 Z" id="Shape"></path>
                </g>
            </g>
        </g>
    </g>
</svg>